<?xml version="1.0" encoding="utf-8"?>
<!-- Generator: Adobe Illustrator 16.0.0, SVG Export Plug-In . SVG Version: 6.00 Build 0)  -->
<!DOCTYPE svg PUBLIC "-//W3C//DTD SVG 1.1//EN" "http://www.w3.org/Graphics/SVG/1.1/DTD/svg11.dtd">
<svg version="1.1" id="Layer_1" xmlns="http://www.w3.org/2000/svg" xmlns:xlink="http://www.w3.org/1999/xlink" x="0px" y="0px"
	 width="512px" height="512px" viewBox="0 0 512 512" enable-background="new 0 0 512 512" xml:space="preserve">
<g id="_x31_1._book_x2C__apple_x2C__school_x2C__university_x2C__college_x2C__learning">
	<g>
		<path fill="#A0D468" d="M287.281,74.123c-6.242,6.32-16.32,6.32-22.562,0c-6.32-6.242-6.32-16.32,0-22.562
			c6.242-6.32,33.28-23.273,39.601-17.039C310.562,40.843,293.601,67.881,287.281,74.123z"/>
	</g>
	<g opacity="0.2">
		<path d="M304.319,34.522c-1.711-1.695-4.984-1.641-8.93-0.594c0.328,0.18,0.672,0.344,0.93,0.594
			c6.242,6.32-10.718,33.358-17.038,39.601c-2.094,2.117-4.625,3.46-7.281,4.156c5.289,1.391,11.125,0.055,15.281-4.156
			C293.601,67.881,310.562,40.843,304.319,34.522z"/>
	</g>
	<g opacity="0.4">
		<path fill="#FFFFFF" d="M272.719,74.123c-6.32-6.242-6.32-16.32,0-22.562c4.547-4.602,20.108-14.812,30.671-17.632
			c-7.609-4.219-32.687,11.57-38.671,17.632c-6.32,6.242-6.32,16.32,0,22.562c4.156,4.21,9.992,5.546,15.281,4.156
			C277.344,77.583,274.812,76.24,272.719,74.123z"/>
	</g>
	<g>
		<path fill="#ED5564" d="M256.078,101.88c23.359-13.68,75.92-14,75.92,60.639c0,56.959-49.678,76.802-75.92,65.123h-0.156
			c-26.241,11.679-75.919-8.164-75.919-65.123c0-74.639,52.557-74.318,75.919-60.639H256.078z"/>
	</g>
	<g opacity="0.2">
		<g>
			<path d="M274.992,95.513c20.882,3.375,41.006,20.819,41.006,67.006c0,41.827-26.779,63.568-51.404,67.576
				c27.18,4.812,67.404-16.289,67.404-67.576C331.998,104.372,300.132,91.802,274.992,95.513z"/>
		</g>
	</g>
	<g opacity="0.3">
		<g>
			<path fill="#FFFFFF" d="M196.002,162.519c0-46.187,20.129-63.631,41.007-67.006c-25.14-3.711-57.006,8.859-57.006,67.006
				c0,51.287,40.225,72.389,67.404,67.576C222.782,226.087,196.002,204.345,196.002,162.519z"/>
		</g>
	</g>
	<g>
		<polygon fill="#ED5564" points="76.006,414.831 132.004,414.831 132.004,446.83 104.005,438.83 76.006,446.83 		"/>
	</g>
	<g>
		<path fill="#5D9CEC" d="M507.992,478.829H64.006c-33.12,0-59.998-26.882-59.998-59.998s26.878-59.998,59.998-59.998h443.986
			v15.999h-7.999H64.006c-24.319,0-43.998,19.68-43.998,43.999s19.679,43.999,43.998,43.999h435.987h7.999V478.829z"/>
	</g>
	<g opacity="0.3">
		<path fill="#FFFFFF" d="M12.008,418.831c0-33.116,26.878-59.998,59.998-59.998h-8c-33.12,0-59.998,26.882-59.998,59.998
			s26.878,59.998,59.998,59.998h8C38.886,478.829,12.008,451.947,12.008,418.831z"/>
	</g>
	<g>
		<path fill="#E6E9ED" d="M132.004,446.83v-31.999H76.006v31.999l27.999-8L132.004,446.83z M64.006,374.832h435.987v8v71.998v8
			H64.006c-24.319,0-43.998-19.68-43.998-43.999S39.687,374.832,64.006,374.832z"/>
	</g>
	<g opacity="0.2">
		<g>
			<path d="M28.007,418.831c0-24.319,19.68-43.999,43.999-43.999h-8c-24.319,0-43.998,19.68-43.998,43.999
				s19.679,43.999,43.998,43.999h8C47.687,462.83,28.007,443.15,28.007,418.831z"/>
		</g>
	</g>
	<g>
		<path fill="#48CFAD" d="M92.243,326.834h143.758h223.993h8v15.999H92.005c-26.479,0-47.998-21.522-47.998-47.998
			s21.519-47.999,47.998-47.999h375.989v16h-8H299.999H92.243h-0.238c-17.679,0-31.999,14.319-31.999,31.999
			c0,17.679,14.32,31.999,31.999,31.999H92.243z"/>
	</g>
	<g opacity="0.3">
		<path fill="#FFFFFF" d="M52.007,294.835c0-26.476,21.519-47.999,47.998-47.999h-8c-26.479,0-47.998,21.523-47.998,47.999
			s21.519,47.998,47.998,47.998h8C73.525,342.833,52.007,321.311,52.007,294.835z"/>
	</g>
	<g>
		<path fill="#E6E9ED" d="M299.999,262.836H92.243h-0.238c-17.679,0-31.999,14.319-31.999,31.999
			c0,17.679,14.32,31.999,31.999,31.999h0.238h143.758h223.993v-8v-47.998v-8H299.999z"/>
	</g>
	<g opacity="0.2">
		<path d="M68.006,294.835c0-17.68,14.32-31.999,31.999-31.999h-7.762h-0.238c-17.679,0-31.999,14.319-31.999,31.999
			c0,17.679,14.32,31.999,31.999,31.999h0.238h7.762C82.326,326.834,68.006,312.514,68.006,294.835z"/>
	</g>
	<g>
		<g>
			<path fill="#3A3847" d="M239.685,234.868c-10.926,0-22.612-3.453-32.804-10.07c-11.531-7.492-30.878-25.546-30.878-62.279
				c0-40.64,15.331-57.967,28.19-65.334c18.015-10.328,39.976-6.812,53.748,1.242c1.906,1.117,2.547,3.57,1.434,5.477
				c-1.121,1.906-3.574,2.539-5.473,1.43c-11.397-6.672-30.573-9.906-45.729-1.211c-15.812,9.062-24.171,29.257-24.171,58.396
				c0,32.96,17.065,48.959,27.237,55.568c13.69,8.891,30.987,11.266,43.057,5.898c2.027-0.883,4.383,0.008,5.281,2.031
				c0.895,2.016-0.012,4.383-2.031,5.281C252.152,233.696,246.048,234.868,239.685,234.868z"/>
		</g>
		<g>
			<path fill="#3A3847" d="M272.312,234.868c-6.359,0-12.465-1.172-17.859-3.57c-2.02-0.898-2.925-3.266-2.031-5.281
				c0.902-2.023,3.273-2.914,5.281-2.031c12.062,5.367,29.359,2.992,43.062-5.898c10.172-6.609,27.233-22.608,27.233-55.568
				c0-29.14-8.359-49.334-24.171-58.396c-15.155-8.695-34.327-5.461-45.729,1.211c-1.898,1.109-4.355,0.477-5.473-1.43
				c-1.112-1.906-0.473-4.359,1.434-5.477c13.77-8.055,35.738-11.57,53.753-1.242c12.858,7.367,28.187,24.694,28.187,65.334
				c0,36.733-19.344,54.787-30.874,62.279C294.937,231.415,283.234,234.868,272.312,234.868z"/>
		</g>
		<g>
			<path fill="#3A3847" d="M255.918,90.841c-1.926,0-3.625-1.391-3.944-3.352c-3.469-21.241-24.359-28.554-25.246-28.851
				c-2.09-0.711-3.215-2.977-2.512-5.07c0.699-2.085,2.945-3.21,5.051-2.515c1.074,0.352,26.339,9.062,30.604,35.147
				c0.355,2.18-1.125,4.234-3.305,4.594C256.348,90.825,256.133,90.841,255.918,90.841z"/>
		</g>
		<g>
			<path fill="#3A3847" d="M507.992,362.833H64.006c-2.211,0-4-1.789-4-4s1.789-4,4-4h443.986c2.211,0,4,1.789,4,4
				S510.203,362.833,507.992,362.833z"/>
		</g>
		<g>
			<path fill="#3A3847" d="M507.992,482.829H64.006c-2.211,0-4-1.789-4-4s1.789-4,4-4h443.986c2.211,0,4,1.789,4,4
				S510.203,482.829,507.992,482.829z"/>
		</g>
		<g>
			<path fill="#3A3847" d="M64.006,482.829c-35.288,0-63.998-28.71-63.998-63.998s28.71-63.998,63.998-63.998c2.211,0,4,1.789,4,4
				s-1.789,4-4,4c-30.878,0-55.998,25.124-55.998,55.998s25.12,55.998,55.998,55.998c2.211,0,4,1.789,4,4
				S66.217,482.829,64.006,482.829z"/>
		</g>
		<g>
			<path fill="#3A3847" d="M64.006,466.83c-26.468,0-47.998-21.531-47.998-47.999s21.53-47.999,47.998-47.999c2.211,0,4,1.789,4,4
				s-1.789,4-4,4c-22.054,0-39.998,17.945-39.998,39.999s17.944,39.999,39.998,39.999c2.211,0,4,1.789,4,4
				S66.217,466.83,64.006,466.83z"/>
		</g>
		<g>
			<path fill="#3A3847" d="M507.992,378.832H64.006c-2.211,0-4-1.789-4-4s1.789-4,4-4h443.986c2.211,0,4,1.789,4,4
				S510.203,378.832,507.992,378.832z"/>
		</g>
		<g>
			<path fill="#3A3847" d="M507.992,378.832c-2.21,0-3.999-1.789-3.999-4v-15.999c0-2.211,1.789-4,3.999-4c2.211,0,4,1.789,4,4
				v15.999C511.992,377.043,510.203,378.832,507.992,378.832z"/>
		</g>
		<g>
			<path fill="#3A3847" d="M507.992,466.83H64.006c-2.211,0-4-1.789-4-4s1.789-4,4-4h443.986c2.211,0,4,1.789,4,4
				S510.203,466.83,507.992,466.83z"/>
		</g>
		<g>
			<path fill="#3A3847" d="M507.992,482.829c-2.21,0-3.999-1.789-3.999-4V462.83c0-2.211,1.789-4,3.999-4c2.211,0,4,1.789,4,4
				v15.999C511.992,481.04,510.203,482.829,507.992,482.829z"/>
		</g>
		<g>
			<path fill="#3A3847" d="M499.993,458.83c-2.211,0-4-1.789-4-4v-71.998c0-2.211,1.789-4,4-4s4,1.789,4,4v71.998
				C503.993,457.041,502.204,458.83,499.993,458.83z"/>
		</g>
		<g>
			<path fill="#3A3847" d="M395.996,402.832H260c-2.211,0-4-1.789-4-4s1.789-4,4-4h135.996c2.211,0,4,1.789,4,4
				S398.207,402.832,395.996,402.832z"/>
		</g>
		<g>
			<path fill="#3A3847" d="M323.998,434.83H188.002c-2.21,0-3.999-1.789-3.999-4s1.789-3.999,3.999-3.999h135.996
				c2.211,0,4,1.788,4,3.999S326.209,434.83,323.998,434.83z"/>
		</g>
		<g>
			<path fill="#3A3847" d="M475.994,450.83h-79.998c-2.211,0-4-1.789-4-4s1.789-4,4-4h79.998c2.211,0,4,1.789,4,4
				S478.205,450.83,475.994,450.83z"/>
		</g>
		<g>
			<path fill="#3A3847" d="M140.004,418.831H68.006c-2.211,0-4-1.789-4-4s1.789-4,4-4h71.998c2.211,0,4,1.789,4,4
				S142.215,418.831,140.004,418.831z"/>
		</g>
		<g>
			<path fill="#3A3847" d="M76.006,450.83c-2.211,0-4-1.789-4-4v-31.999c0-2.211,1.789-4,4-4s4,1.789,4,4v31.999
				C80.006,449.041,78.217,450.83,76.006,450.83z"/>
		</g>
		<g>
			<path fill="#3A3847" d="M132.004,450.83c-2.211,0-4-1.789-4-4v-31.999c0-2.211,1.789-4,4-4s4,1.789,4,4v31.999
				C136.004,449.041,134.215,450.83,132.004,450.83z"/>
		</g>
		<g>
			<path fill="#3A3847" d="M76.002,450.83c-1.738,0-3.34-1.141-3.844-2.898c-0.605-2.125,0.625-4.344,2.75-4.945l27.999-8
				c2.102-0.633,4.336,0.617,4.945,2.742c0.605,2.125-0.625,4.344-2.75,4.945l-27.999,8C76.736,450.783,76.369,450.83,76.002,450.83
				z"/>
		</g>
		<g>
			<path fill="#3A3847" d="M132.008,450.83c-0.367,0-0.734-0.047-1.102-0.156l-27.999-8c-2.125-0.602-3.355-2.82-2.75-4.945
				c0.609-2.133,2.832-3.383,4.945-2.742l27.999,8c2.125,0.602,3.355,2.82,2.75,4.945
				C135.348,449.689,133.746,450.83,132.008,450.83z"/>
		</g>
		<g>
			<path fill="#3A3847" d="M467.994,250.836H92.005c-2.21,0-3.999-1.789-3.999-4s1.789-4,3.999-4h375.989c2.211,0,4,1.789,4,4
				S470.205,250.836,467.994,250.836z"/>
		</g>
		<g>
			<path fill="#3A3847" d="M467.994,346.833H92.005c-2.21,0-3.999-1.789-3.999-4s1.789-3.999,3.999-3.999h375.989
				c2.211,0,4,1.788,4,3.999S470.205,346.833,467.994,346.833z"/>
		</g>
		<g>
			<path fill="#3A3847" d="M467.994,266.836H92.243c-2.21,0-3.999-1.789-3.999-4s1.789-4,3.999-4h375.751c2.211,0,4,1.789,4,4
				S470.205,266.836,467.994,266.836z"/>
		</g>
		<g>
			<path fill="#3A3847" d="M467.994,266.836c-2.211,0-4-1.789-4-4v-16c0-2.211,1.789-4,4-4s4,1.789,4,4v16
				C471.994,265.047,470.205,266.836,467.994,266.836z"/>
		</g>
		<g>
			<path fill="#3A3847" d="M467.994,330.834H92.243c-2.21,0-3.999-1.789-3.999-4s1.789-4,3.999-4h375.751c2.211,0,4,1.789,4,4
				S470.205,330.834,467.994,330.834z"/>
		</g>
		<g>
			<path fill="#3A3847" d="M467.994,346.833c-2.211,0-4-1.789-4-4v-15.999c0-2.211,1.789-4,4-4s4,1.789,4,4v15.999
				C471.994,345.044,470.205,346.833,467.994,346.833z"/>
		</g>
		<g>
			<path fill="#3A3847" d="M459.994,322.834c-2.211,0-4-1.789-4-4v-47.998c0-2.211,1.789-4,4-4s4,1.789,4,4v47.998
				C463.994,321.045,462.205,322.834,459.994,322.834z"/>
		</g>
		<g>
			<path fill="#3A3847" d="M92.005,330.834c-19.851,0-35.998-16.148-35.998-35.999s16.147-35.999,35.998-35.999c2.211,0,4,1.789,4,4
				s-1.789,4-4,4c-15.437,0-27.999,12.562-27.999,27.999c0,15.437,12.562,27.999,27.999,27.999c2.211,0,4,1.789,4,4
				S94.216,330.834,92.005,330.834z"/>
		</g>
		<g>
			<path fill="#3A3847" d="M92.005,346.833c-28.671,0-51.998-23.327-51.998-51.998s23.327-51.999,51.998-51.999c2.211,0,4,1.789,4,4
				s-1.789,4-4,4c-24.261,0-43.998,19.742-43.998,43.999s19.737,43.999,43.998,43.999c2.211,0,4,1.788,4,3.999
				S94.216,346.833,92.005,346.833z"/>
		</g>
		<g>
			<path fill="#3A3847" d="M172.003,290.835h-63.998c-2.211,0-4-1.789-4-4s1.789-4,4-4h63.998c2.211,0,4,1.789,4,4
				S174.214,290.835,172.003,290.835z"/>
		</g>
		<g>
			<path fill="#3A3847" d="M347.998,306.834H236.001c-2.211,0-4-1.789-4-4s1.789-3.999,4-3.999h111.997c2.211,0,4,1.788,4,3.999
				S350.209,306.834,347.998,306.834z"/>
		</g>
		<g>
			<path fill="#3A3847" d="M411.996,282.835H299.999c-2.211,0-4-1.789-4-4s1.789-3.999,4-3.999h111.997c2.211,0,4,1.788,4,3.999
				S414.207,282.835,411.996,282.835z"/>
		</g>
		<g>
			<path fill="#3A3847" d="M276,82.865c-5.328,0-10.352-2.109-14.129-5.93c-3.785-3.742-5.895-8.757-5.895-14.093
				c0-5.328,2.109-10.352,5.93-14.125c5.547-5.617,26.867-19.546,38.272-19.546c2.93,0,5.266,0.844,6.945,2.508
				c9.968,10.086-12.75,41.062-17.03,45.295C286.352,80.755,281.328,82.865,276,82.865z M300.179,37.171
				c-8.07,0-27.304,11.828-32.616,17.202c-2.328,2.297-3.586,5.289-3.586,8.469s1.258,6.172,3.555,8.438
				c4.594,4.656,12.375,4.617,16.906,0.031c7.539-7.445,19.624-30.319,17.03-33.983C301.468,37.327,301.171,37.171,300.179,37.171z"
				/>
		</g>
	</g>
	<g opacity="0.2">
		<rect x="459.994" y="246.836" width="8" height="16"/>
	</g>
	<g opacity="0.2">
		<rect x="459.994" y="326.834" width="8" height="15.999"/>
	</g>
	<g opacity="0.2">
		<rect x="499.993" y="358.833" width="7.999" height="15.999"/>
	</g>
	<g opacity="0.2">
		<rect x="499.993" y="462.83" width="7.999" height="15.999"/>
	</g>
</g>
</svg>
