<svg xmlns="http://www.w3.org/2000/svg" viewBox="0 0 64 64"><title>Artboard-4</title><g id="Calendar"><polygon points="2 63 2 57 51 57 62 46 62 63 2 63" style="fill:#bbcaea"/><polygon points="2 57 2 5 62 5 62 46 51 57 2 57" style="fill:#e6ecff"/><rect x="2" y="5" width="60" height="14" style="fill:#f25757"/><circle cx="11" cy="12" r="3" style="fill:#d63434"/><circle cx="25" cy="12" r="3" style="fill:#d63434"/><circle cx="39" cy="12" r="3" style="fill:#d63434"/><circle cx="53" cy="12" r="3" style="fill:#d63434"/><rect x="29" y="35" width="6" height="6" style="fill:#f25757"/><rect x="29" y="46" width="6" height="6" style="fill:#f25757"/><rect x="29" y="24" width="6" height="6" style="fill:#f25757"/><rect x="18" y="35" width="6" height="6" style="fill:#f25757"/><rect x="18" y="46" width="6" height="6" style="fill:#f25757"/><rect x="18" y="24" width="6" height="6" style="fill:#f25757"/><rect x="7" y="35" width="6" height="6" style="fill:#f25757"/><rect x="7" y="46" width="6" height="6" style="fill:#f25757"/><rect x="7" y="24" width="6" height="6" style="fill:#f25757"/><rect x="40" y="35" width="6" height="6" style="fill:#f25757"/><rect x="40" y="46" width="6" height="6" style="fill:#f25757"/><rect x="40" y="24" width="6" height="6" style="fill:#f25757"/><rect x="51" y="35" width="6" height="6" style="fill:#f25757"/><rect x="51" y="24" width="6" height="6" style="fill:#f25757"/><polygon points="51 46 51 57 62 46 51 46" style="fill:#d0dbf7"/><path d="M62,4H54V1a1,1,0,0,0-2,0V4H40V1a1,1,0,0,0-2,0V4H26V1a1,1,0,0,0-2,0V4H12V1a1,1,0,0,0-2,0V4H2A1,1,0,0,0,1,5V63a1,1,0,0,0,1,1H62a1,1,0,0,0,1-1V5A1,1,0,0,0,62,4ZM3,20H61V45H51a1,1,0,0,0-1,1V56H3ZM52,47h7.5859L52,54.5859ZM10,6V8.142a4,4,0,1,0,2,0V6H24V8.142a4,4,0,1,0,2,0V6H38V8.142a4,4,0,1,0,2,0V6H52V8.142a4,4,0,1,0,2,0V6h7V18H3V6Zm1,7a1,1,0,0,0,1-1V10.2783a2,2,0,1,1-2,0V12A1,1,0,0,0,11,13Zm14,0a1,1,0,0,0,1-1V10.2783a2,2,0,1,1-2,0V12A1,1,0,0,0,25,13Zm14,0a1,1,0,0,0,1-1V10.2783a2,2,0,1,1-2,0V12A1,1,0,0,0,39,13Zm14,0a1,1,0,0,0,1-1V10.2783a2,2,0,1,1-2,0V12A1,1,0,0,0,53,13ZM3,62V58H51a1.0034,1.0034,0,0,0,.707-.293L61,48.4141V62Z" style="fill:#231e23"/><path d="M35,34H29a1,1,0,0,0-1,1v6a1,1,0,0,0,1,1h6a1,1,0,0,0,1-1V35A1,1,0,0,0,35,34Zm-1,6H30V36h4Z" style="fill:#231e23"/><path d="M35,45H29a1,1,0,0,0-1,1v6a1,1,0,0,0,1,1h6a1,1,0,0,0,1-1V46A1,1,0,0,0,35,45Zm-1,6H30V47h4Z" style="fill:#231e23"/><path d="M35,23H29a1,1,0,0,0-1,1v6a1,1,0,0,0,1,1h6a1,1,0,0,0,1-1V24A1,1,0,0,0,35,23Zm-1,6H30V25h4Z" style="fill:#231e23"/><path d="M24,34H18a1,1,0,0,0-1,1v6a1,1,0,0,0,1,1h6a1,1,0,0,0,1-1V35A1,1,0,0,0,24,34Zm-1,6H19V36h4Z" style="fill:#231e23"/><path d="M24,45H18a1,1,0,0,0-1,1v6a1,1,0,0,0,1,1h6a1,1,0,0,0,1-1V46A1,1,0,0,0,24,45Zm-1,6H19V47h4Z" style="fill:#231e23"/><path d="M24,23H18a1,1,0,0,0-1,1v6a1,1,0,0,0,1,1h6a1,1,0,0,0,1-1V24A1,1,0,0,0,24,23Zm-1,6H19V25h4Z" style="fill:#231e23"/><path d="M13,34H7a1,1,0,0,0-1,1v6a1,1,0,0,0,1,1h6a1,1,0,0,0,1-1V35A1,1,0,0,0,13,34Zm-1,6H8V36h4Z" style="fill:#231e23"/><path d="M13,45H7a1,1,0,0,0-1,1v6a1,1,0,0,0,1,1h6a1,1,0,0,0,1-1V46A1,1,0,0,0,13,45Zm-1,6H8V47h4Z" style="fill:#231e23"/><path d="M13,23H7a1,1,0,0,0-1,1v6a1,1,0,0,0,1,1h6a1,1,0,0,0,1-1V24A1,1,0,0,0,13,23Zm-1,6H8V25h4Z" style="fill:#231e23"/><path d="M46,34H40a1,1,0,0,0-1,1v6a1,1,0,0,0,1,1h6a1,1,0,0,0,1-1V35A1,1,0,0,0,46,34Zm-1,6H41V36h4Z" style="fill:#231e23"/><path d="M46,45H40a1,1,0,0,0-1,1v6a1,1,0,0,0,1,1h6a1,1,0,0,0,1-1V46A1,1,0,0,0,46,45Zm-1,6H41V47h4Z" style="fill:#231e23"/><path d="M46,23H40a1,1,0,0,0-1,1v6a1,1,0,0,0,1,1h6a1,1,0,0,0,1-1V24A1,1,0,0,0,46,23Zm-1,6H41V25h4Z" style="fill:#231e23"/><path d="M51,42h6a1,1,0,0,0,1-1V35a1,1,0,0,0-1-1H51a1,1,0,0,0-1,1v6A1,1,0,0,0,51,42Zm1-6h4v4H52Z" style="fill:#231e23"/><path d="M51,31h6a1,1,0,0,0,1-1V24a1,1,0,0,0-1-1H51a1,1,0,0,0-1,1v6A1,1,0,0,0,51,31Zm1-6h4v4H52Z" style="fill:#231e23"/></g></svg>